PathFileType	4	(X/Y/Z)	C:\Users\italobelli\Desktop\GitHub\PTbot_officialCBL\Personal_Results\SHRUG22_noisy2.trc
DataRate	CameraRate	NumFrames	NumMarkers	Units	OrigDataRate	OrigDataStartFrame	OrigNumFrames
110.888889	110.888889	17	9	m	110.888889	438	500
Frame#	Time		gu		centelbow		EpL		centpxt8		centijc7		ij		ts		aa		ai
			X1	Y1	Z1	X2	Y2	Z2	X3	Y3	Z3	X4	Y4	Z4	X5	Y5	Z5	X6	Y6	Z6	X7	Y7	Z7	X8	Y8	Z8	X9	Y9	Z9

438	3.9409	-0.098389	-0.013101	0.15788	-0.12675	-0.26685	0.18852	-0.11056	-0.26251	0.21593	-0.046816	-0.15316	-0.008669	-0.046816	0.031938	-0.008669	0	0	0	-0.13892	0.037258	0.044886	-0.12074	0.025681	0.16227	-0.16883	-0.072254	0.044138
439	3.9499	-0.098263	-0.013224	0.15794	-0.12673	-0.267	0.18844	-0.11049	-0.26266	0.21584	-0.046816	-0.15316	-0.008669	-0.046816	0.031938	-0.008669	0	0	0	-0.13893	0.037189	0.044987	-0.12064	0.025584	0.16233	-0.16884	-0.072322	0.044233
440	3.9589	-0.098142	-0.01334	0.15799	-0.12672	-0.26713	0.18836	-0.11043	-0.2628	0.21574	-0.046816	-0.15316	-0.008669	-0.046816	0.031938	-0.008669	0	0	0	-0.13894	0.037123	0.045083	-0.12054	0.025494	0.1624	-0.16885	-0.072388	0.044322
441	3.9679	-0.098026	-0.013449	0.15804	-0.12672	-0.26725	0.18827	-0.11038	-0.26293	0.21564	-0.046816	-0.15316	-0.008669	-0.046816	0.031938	-0.008669	0	0	0	-0.13896	0.03706	0.045175	-0.12045	0.02541	0.16246	-0.16886	-0.072451	0.044406
442	3.977	-0.097916	-0.01355	0.15809	-0.12673	-0.26737	0.18817	-0.11032	-0.26306	0.21552	-0.046816	-0.15316	-0.008669	-0.046816	0.031938	-0.008669	0	0	0	-0.13897	0.036998	0.045261	-0.12036	0.025333	0.16252	-0.16886	-0.072511	0.044483
443	3.986	-0.097811	-0.013644	0.15813	-0.12674	-0.26747	0.18807	-0.11028	-0.26317	0.21541	-0.046816	-0.15316	-0.008669	-0.046816	0.031938	-0.008669	0	0	0	-0.13898	0.03694	0.045343	-0.12028	0.025263	0.16257	-0.16887	-0.072568	0.044553
444	3.995	-0.097712	-0.01373	0.15818	-0.12677	-0.26757	0.18796	-0.11024	-0.26327	0.21528	-0.046816	-0.15316	-0.008669	-0.046816	0.031938	-0.008669	0	0	0	-0.13899	0.036884	0.04542	-0.1202	0.025199	0.16262	-0.16888	-0.072622	0.044616
445	4.004	-0.097618	-0.01381	0.15822	-0.12681	-0.26766	0.18784	-0.11021	-0.26336	0.21515	-0.046816	-0.15316	-0.008669	-0.046816	0.031938	-0.008669	0	0	0	-0.13899	0.036831	0.045491	-0.12013	0.025142	0.16267	-0.16888	-0.072673	0.044673
446	4.013	-0.097529	-0.013886	0.15826	-0.12686	-0.26774	0.18771	-0.11019	-0.26345	0.21502	-0.046816	-0.15316	-0.008669	-0.046816	0.031938	-0.008669	0	0	0	-0.139	0.03678	0.045561	-0.12006	0.025089	0.16272	-0.16889	-0.072722	0.044728
447	4.022	-0.097443	-0.013961	0.1583	-0.12693	-0.26782	0.18759	-0.1102	-0.26353	0.21488	-0.046816	-0.15316	-0.008669	-0.046816	0.031938	-0.008669	0	0	0	-0.13901	0.036732	0.045628	-0.12	0.025037	0.16276	-0.16889	-0.072768	0.044782
448	4.0311	-0.097362	-0.014035	0.15834	-0.12701	-0.2679	0.18746	-0.11022	-0.26361	0.21474	-0.046816	-0.15316	-0.008669	-0.046816	0.031938	-0.008669	0	0	0	-0.13902	0.036686	0.045693	-0.11993	0.024988	0.1628	-0.1689	-0.072812	0.044836
449	4.0401	-0.097284	-0.014106	0.15839	-0.1271	-0.26797	0.18733	-0.11027	-0.26369	0.21461	-0.046816	-0.15316	-0.008669	-0.046816	0.031938	-0.008669	0	0	0	-0.13903	0.036642	0.045756	-0.11987	0.024942	0.16285	-0.16891	-0.072854	0.04489
450	4.0491	-0.097211	-0.014176	0.15843	-0.12722	-0.26805	0.1872	-0.11033	-0.26377	0.21446	-0.046816	-0.15316	-0.008669	-0.046816	0.031938	-0.008669	0	0	0	-0.13904	0.036601	0.045817	-0.11982	0.024898	0.16289	-0.16891	-0.072894	0.044943
451	4.0581	-0.097141	-0.014244	0.15847	-0.12734	-0.26811	0.18706	-0.11041	-0.26384	0.21432	-0.046816	-0.15316	-0.008669	-0.046816	0.031938	-0.008669	0	0	0	-0.13904	0.036562	0.045876	-0.11976	0.024856	0.16293	-0.16892	-0.072931	0.044995
452	4.0671	-0.097075	-0.01431	0.15851	-0.12748	-0.26818	0.18692	-0.11051	-0.26391	0.21418	-0.046816	-0.15316	-0.008669	-0.046816	0.031938	-0.008669	0	0	0	-0.13905	0.036525	0.045933	-0.11971	0.024816	0.16297	-0.16892	-0.072967	0.045047
453	4.0762	-0.097012	-0.014374	0.15854	-0.12763	-0.26824	0.18678	-0.11063	-0.26397	0.21403	-0.046816	-0.15316	-0.008669	-0.046816	0.031938	-0.008669	0	0	0	-0.13906	0.036491	0.045988	-0.11966	0.02478	0.16301	-0.16893	-0.073	0.045098
454	4.0852	-0.096953	-0.014436	0.15858	-0.12779	-0.2683	0.18664	-0.11076	-0.26404	0.21388	-0.046816	-0.15316	-0.008669	-0.046816	0.031938	-0.008669	0	0	0	-0.13907	0.036459	0.04604	-0.11961	0.024745	0.16305	-0.16894	-0.073032	0.045148
